<svg xmlns="http://www.w3.org/2000/svg" width="100%" height="100%" viewBox="0 0 40 40">
  <g id="Grupo_925" data-name="Grupo 925" transform="translate(-0.371 -0.371)">
    <circle id="Elipse_79" data-name="Elipse 79" cx="20" cy="20" r="20" transform="translate(0.371 0.371)" fill="#fff"/>
    <path id="Trazado_2934" data-name="Trazado 2934" d="M17.931,7.6V7.58c0-.046-.008-.089-.012-.135l-.008-.077c-.008-.062-.015-.124-.023-.189l0-.023c-.008-.039-.012-.081-.019-.124-.012-.07-.027-.139-.039-.2l-.015-.066c-.019-.089-.042-.182-.07-.27l-.019-.062c-.012-.042-.027-.089-.039-.131l-.019-.062a5.716,5.716,0,0,0-.309-.746l0-.008c-.019-.035-.039-.073-.054-.108-.046-.085-.093-.17-.143-.251L17.1,5.03s0-.008-.008-.012c-.019-.031-.035-.058-.054-.085l-.07-.1-.023-.035s-.008-.012-.012-.015L16.872,4.7a6.2,6.2,0,0,0-.429-.525.4.4,0,0,1-.1-.224L16.2,2.77l-.155-1.464-.008-.085A1.438,1.438,0,0,0,14.624,0a1.353,1.353,0,0,0-.541.108,1.4,1.4,0,0,0-.595.46,1.423,1.423,0,0,0-.29.865c0,.039,0,.081,0,.12l.073,1.708v.012c.012.147.019.3.019.448a4.446,4.446,0,0,1-.51,2.129,12.2,12.2,0,0,1-5.162,4.833l-.189.1c-.066.031-.131.066-.2.1l-.2.1c-.066.031-.135.062-.2.093s-.135.062-.2.089-.139.058-.209.089-.139.058-.212.085l-.212.081c-.073.027-.143.054-.216.077l-.216.077c-.073.023-.147.05-.22.073l-.22.07c-.073.023-.147.046-.224.066s-.151.042-.224.066l-.224.062-.228.058c-.077.019-.155.039-.228.054s-.155.035-.232.05-.155.035-.232.05l-.236.046c-.077.015-.158.027-.236.042s-.158.027-.236.039l-.24.035c-.081.012-.158.023-.24.031s-.162.019-.243.027-.162.019-.243.027l-.243.023-.039,0c-.077.008-.155.012-.24.027a1.892,1.892,0,0,0-.212.05,1.548,1.548,0,0,0-.2.077,1.774,1.774,0,0,0-.189.1,1.41,1.41,0,0,0-.174.124,1.824,1.824,0,0,0-.158.143,1.774,1.774,0,0,0-.139.158c-.042.058-.081.116-.12.178a1.8,1.8,0,0,0-.1.193,1.84,1.84,0,0,0-.073.2,1.952,1.952,0,0,0-.046.216,1.462,1.462,0,0,0-.019.224c0,.081,0,.166.012.243a1.711,1.711,0,0,0,.178.58.9.9,0,0,0,.062.108l0,0a1.407,1.407,0,0,0,.093.135,1.04,1.04,0,0,0,.1.124,1.639,1.639,0,0,0,.116.116,1.6,1.6,0,0,0,.124.1,1.049,1.049,0,0,0,.135.093,1.341,1.341,0,0,0,.143.081c.05.023.1.046.147.07.019.012.042.019.062.031s.046.023.066.031l.131.062.135.058.135.058.135.058c.046.019.093.039.139.054s.093.035.139.054.093.035.139.054.093.035.139.05.093.035.143.05l.143.046.143.046.143.046c.05.015.1.031.147.042l.147.042c.05.015.1.027.147.039s.1.027.147.039.1.023.151.039l.151.035.151.035c.05.012.1.019.151.031s.1.019.151.031.1.019.155.027.1.019.155.027l.155.023.155.023c.05.008.1.015.155.019s.1.012.158.019.1.012.158.019.1.012.158.015.1.012.158.015l.158.012.158.012c.054,0,.108,0,.162.008S6.143,17,6.2,17s.108,0,.162,0,.108,0,.162,0h.162a12.691,12.691,0,0,0,7.008-2.021,9.362,9.362,0,0,0,3.937-5.092l.008-.023c.012-.039.019-.073.031-.112l0-.015c.008-.031.015-.058.023-.089.015-.054.027-.112.039-.162l.023-.1V9.38a.628.628,0,0,0,.015-.073l.012-.062c.015-.081.031-.162.046-.247.019-.108.035-.216.046-.317.008-.05.012-.1.019-.147,0-.019,0-.035,0-.054a.754.754,0,0,0,.008-.089v0c0-.039.008-.077.012-.12V8.248c0-.031,0-.062.008-.093a.188.188,0,0,1,0-.046v0c0-.027,0-.054,0-.085V7.947A2.1,2.1,0,0,0,17.931,7.6Z" transform="translate(10.24 11.076)" fill="#353535"/>
  </g>
</svg>
