<svg xmlns="http://www.w3.org/2000/svg" width="20.01" height="20.041" viewBox="0 0 20.01 20.041">
  <g id="bxl-instagram_1_" data-name="bxl-instagram (1)" transform="translate(-3.002 -3.005)">
    <path id="Trazado_413" data-name="Trazado 413" d="M13,7.377A5.626,5.626,0,1,0,18.624,13,5.624,5.624,0,0,0,13,7.377Zm0,9.281A3.654,3.654,0,1,1,16.652,13,3.655,3.655,0,0,1,13,16.658Z" transform="translate(0)" fill="#fff"/>
    <circle id="Elipse_15" data-name="Elipse 15" cx="1.078" cy="1.078" r="1.078" transform="translate(17.335 6.523)" fill="#fff"/>
    <path id="Trazado_414" data-name="Trazado 414" d="M22.482,6.456a5.117,5.117,0,0,0-2.926-2.925,7.341,7.341,0,0,0-2.429-.467c-1.07-.047-1.409-.06-4.122-.06s-3.061,0-4.122.06a7.283,7.283,0,0,0-2.427.467A5.111,5.111,0,0,0,3.53,6.456a7.317,7.317,0,0,0-.466,2.429C3.016,9.954,3,10.293,3,13.008s0,3.059.062,4.122a7.329,7.329,0,0,0,.466,2.43,5.122,5.122,0,0,0,2.927,2.925,7.316,7.316,0,0,0,2.428.5c1.07.047,1.409.061,4.122.061s3.061,0,4.122-.061a7.351,7.351,0,0,0,2.429-.466,5.125,5.125,0,0,0,2.926-2.926,7.317,7.317,0,0,0,.466-2.429c.048-1.069.062-1.408.062-4.122s0-3.059-.062-4.122A7.313,7.313,0,0,0,22.482,6.456ZM21.129,17.048a5.6,5.6,0,0,1-.346,1.876,3.319,3.319,0,0,1-1.9,1.9,5.54,5.54,0,0,1-1.856.346c-1.056.049-1.353.061-4.06.061s-2.986,0-4.061-.061a5.511,5.511,0,0,1-1.855-.346,3.316,3.316,0,0,1-1.91-1.9,5.646,5.646,0,0,1-.346-1.855c-.048-1.056-.059-1.353-.059-4.06s0-2.985.059-4.061a5.6,5.6,0,0,1,.346-1.875,3.318,3.318,0,0,1,1.91-1.9A5.566,5.566,0,0,1,8.9,4.825c1.057-.048,1.353-.061,4.061-.061s2.986,0,4.06.061a5.512,5.512,0,0,1,1.856.346,3.324,3.324,0,0,1,1.9,1.9,5.646,5.646,0,0,1,.346,1.855c.048,1.057.06,1.353.06,4.061s0,3-.048,4.06h-.012Z" fill="#fff"/>
  </g>
</svg>
