<svg xmlns="http://www.w3.org/2000/svg" width="100%" height="100%" viewBox="0 0 40 40">
  <g id="Grupo_924" data-name="Grupo 924" transform="translate(0.073 -0.371)">
    <circle id="Elipse_78" data-name="Elipse 78" cx="20" cy="20" r="20" transform="translate(-0.073 0.371)" fill="#d3dee5"/>
    <g id="Grupo_923" data-name="Grupo 923" transform="translate(6.953 14.97)">
      <path id="Trazado_2935" data-name="Trazado 2935" d="M4.034,9.375a2.223,2.223,0,0,1-.742.42,2.99,2.99,0,0,1-.936.145A2.362,2.362,0,0,1,.613,9.327,2.348,2.348,0,0,1,0,7.6V0H1.081V1.775H3.5v.92H1.081V7.536a1.5,1.5,0,0,0,.355,1.1A1.294,1.294,0,0,0,2.453,9a1.737,1.737,0,0,0,1.194-.42Z" fill="#1a191e"/>
      <path id="Trazado_2936" data-name="Trazado 2936" d="M28.73,17.491a3.794,3.794,0,0,1-1.565-1.5,4.484,4.484,0,0,1,0-4.357,4.118,4.118,0,0,1,1.565-1.5A4.737,4.737,0,0,1,31.005,9.6a4.266,4.266,0,0,1,2.114.5,3.241,3.241,0,0,1,1.372,1.42l-1.468.855a2.447,2.447,0,0,0-.871-.855,2.37,2.37,0,0,0-1.146-.29,2.408,2.408,0,0,0-1.775.694,2.533,2.533,0,0,0-.694,1.872,2.533,2.533,0,0,0,.694,1.872,2.383,2.383,0,0,0,1.775.694,2.282,2.282,0,0,0,1.146-.29,2.215,2.215,0,0,0,.871-.855l1.468.855a3.276,3.276,0,0,1-1.388,1.42,4.246,4.246,0,0,1-2.1.5A4.152,4.152,0,0,1,28.73,17.491Z" transform="translate(-22.308 -8.051)" fill="#1a191e"/>
      <g id="Grupo_922" data-name="Grupo 922" transform="translate(12.221 1.662)">
        <path id="Trazado_2937" data-name="Trazado 2937" d="M102.437,11v4.389a3.309,3.309,0,0,1-.565,2.114,2.078,2.078,0,0,1-1.711.678,2.14,2.14,0,0,1-1.759-.694,3.412,3.412,0,0,1-.565-2.146V11H96.757v4.357a3.412,3.412,0,0,1-.565,2.146,2.557,2.557,0,0,1-3.486.016,1.916,1.916,0,0,1-.307-.533l-.5,1.243.032.032a3.213,3.213,0,0,0,2.517.952,3.481,3.481,0,0,0,1.775-.42A2.7,2.7,0,0,0,97.306,17.5a2.618,2.618,0,0,0,1.1,1.307,3.46,3.46,0,0,0,1.759.4,3.213,3.213,0,0,0,2.517-.952,3.99,3.99,0,0,0,.855-2.743V11Z" transform="translate(-89.291 -10.887)" fill="#1a191e"/>
        <path id="Trazado_2938" data-name="Trazado 2938" d="M80.07,10.348a.115.115,0,0,0-.1-.048h-.726a.163.163,0,0,0-.113.065l-1.694,4.228-.823,2.033-.871,2.146a.1.1,0,0,0,.016.113.115.115,0,0,0,.1.048h.726a.163.163,0,0,0,.113-.065l.5-1.243.5-1.243,2.4-5.922A.136.136,0,0,0,80.07,10.348Z" transform="translate(-75.734 -10.3)" fill="#1a191e"/>
      </g>
    </g>
  </g>
</svg>
