<svg xmlns="http://www.w3.org/2000/svg" width="18.624" height="18.581" viewBox="0 0 18.624 18.581">
  <g id="Group_1316" data-name="Group 1316" transform="translate(-156.69 -280.016)">
    <path id="Path_3019" data-name="Path 3019" d="M175.205,280.016H156.691V298.6h18.514v-6.132a.7.7,0,0,0,.11-.409.636.636,0,0,0-.11-.407" transform="translate(-0.001)" fill="#262833"/>
    <path id="Path_3020" data-name="Path 3020" d="M158.359,378.707l-.356-.868-.354.868m8.557-.346a.483.483,0,0,1-.257.045h-.632v-.484h.641a.534.534,0,0,1,.247.039.2.2,0,0,1,.109.192A.223.223,0,0,1,166.205,378.362Zm4.51.346-.36-.868-.358.868Zm-8.406.939h-.533l0-1.705-.755,1.705h-.457l-.756-1.707v1.707h-1.058l-.2-.486h-1.083l-.2.486H156.7l.932-2.177h.773l.885,2.061V377.47h.849l.681,1.477.626-1.477h.866v2.177Zm2.126,0H162.7V377.47h1.738v.453h-1.218v.392h1.189v.446h-1.189v.435h1.218Zm2.451-1.591a.613.613,0,0,1-.367.58.6.6,0,0,1,.257.183.626.626,0,0,1,.086.4v.428h-.525l0-.275a.653.653,0,0,0-.082-.424.509.509,0,0,0-.379-.093h-.559v.792h-.52V377.47h1.2a1.225,1.225,0,0,1,.63.1A.508.508,0,0,1,166.886,378.056Zm.833,1.591h-.531V377.47h.531Zm6.16,0h-.737l-.986-1.634v1.634h-1.06l-.2-.486h-1.081l-.2.486h-.609a.922.922,0,0,1-1.033-1.072,1.159,1.159,0,0,1,.281-.851,1.056,1.056,0,0,1,.79-.254h.5v.466h-.493a.5.5,0,0,0-.4.129.718.718,0,0,0-.15.493.755.755,0,0,0,.143.511.5.5,0,0,0,.363.112h.234l.733-1.712h.78l.881,2.059V377.47h.792l.915,1.516V377.47h.533v2.177Zm-17.188.428h.889l.2-.484h.449l.2.484h1.749v-.37l.156.371h.908l.156-.377v.375h4.348l0-.794h.084c.059,0,.076.008.076.1v.689h2.249v-.185a1.782,1.782,0,0,0,.835.185h.946l.2-.484h.449l.2.484h1.823v-.459l.276.459h1.461v-3.036H172.9v.359l-.2-.359h-1.483v.359l-.186-.359h-2a1.8,1.8,0,0,0-.868.177v-.177H166.77v.177a.857.857,0,0,0-.588-.177H161.13l-.339.784-.348-.784h-1.591v.359l-.175-.359H157.32l-.63,1.444v1.593Z" transform="translate(0 -90.651)" fill="#fff"/>
    <path id="Path_3021" data-name="Path 3021" d="M227.591,434.976h-.948a.361.361,0,0,0-.211.039.17.17,0,0,0-.076.157.164.164,0,0,0,.114.162.594.594,0,0,0,.2.025l.282.008a.822.822,0,0,1,.59.175.279.279,0,0,1,.048.054m0,.816a.811.811,0,0,1-.706.278H225.88v-.467h1a.3.3,0,0,0,.211-.054.191.191,0,0,0,.062-.142.179.179,0,0,0-.064-.144.264.264,0,0,0-.183-.048c-.489-.016-1.1.015-1.1-.674,0-.316.2-.648.747-.648h1.037v-.433h-.963a1.086,1.086,0,0,0-.651.178v-.178h-1.425a.986.986,0,0,0-.622.178v-.178h-2.544v.178a1.354,1.354,0,0,0-.7-.178h-1.678v.178a1.187,1.187,0,0,0-.733-.178H216.4l-.43.465-.4-.465h-2.805v3.038h2.752l.443-.472.417.472,1.7,0V436.4h.167a1.769,1.769,0,0,0,.725-.107v.82h1.4v-.792h.068c.086,0,.095,0,.095.09v.7h4.251a1.212,1.212,0,0,0,.708-.194v.194h1.348a1.806,1.806,0,0,0,.763-.14v-.566Zm-2.076-.87a.606.606,0,0,1,.156.461c0,.469-.293.687-.817.687H223.84v-.467h1.009a.305.305,0,0,0,.212-.054.193.193,0,0,0,.062-.142.187.187,0,0,0-.064-.144.274.274,0,0,0-.185-.048c-.487-.016-1.1.015-1.1-.674,0-.316.2-.648.744-.648h1.043v.463h-.955a.352.352,0,0,0-.209.039.182.182,0,0,0,.036.319.6.6,0,0,0,.2.025l.28.008A.839.839,0,0,1,225.516,435.541Zm-4.7-.135a.5.5,0,0,1-.257.045h-.632v-.489h.641a.513.513,0,0,1,.248.039.207.207,0,0,1,.108.2A.235.235,0,0,1,220.82,435.407Zm.314.271a.565.565,0,0,1,.255.183.633.633,0,0,1,.086.4v.432h-.522v-.273c0-.131.013-.325-.084-.426a.5.5,0,0,0-.382-.1h-.556v.8h-.523v-2.178h1.2a1.289,1.289,0,0,1,.626.1.51.51,0,0,1,.268.484A.61.61,0,0,1,221.134,435.678Zm.657-1.166h1.737v.45H222.31v.4H223.5v.444H222.31v.433l1.219,0v.452h-1.737Zm-3.511,1h-.673v-.554h.679c.188,0,.318.077.318.267S218.481,435.517,218.281,435.517Zm-1.191.975-.8-.887.8-.859Zm-2.063-.256h-1.279V435.8h1.142v-.444h-1.142v-.4h1.3l.569.635Zm4.137-1.006c0,.6-.451.73-.906.73h-.649v.73H216.6l-.641-.721-.666.721h-2.061v-2.178h2.093l.64.714.662-.714h1.663C218.7,434.512,219.164,434.626,219.164,435.23Z" transform="translate(-52.387 -143.946)" fill="#fff"/>
  </g>
</svg>
