<svg xmlns="http://www.w3.org/2000/svg" width="22" height="20" viewBox="0 0 22 20">
  <g id="bx-cart" transform="translate(-2 -3)">
    <path id="Path_2997" data-name="Path 2997" d="M23.8,7.82a1.1,1.1,0,0,0-.9-.469H7.866L6.6,4.338A2.194,2.194,0,0,0,4.566,3H2V5.176H4.566L9.785,17.561a1.1,1.1,0,0,0,1.015.669h8.8a1.1,1.1,0,0,0,1.031-.7l3.3-8.7A1.078,1.078,0,0,0,23.8,7.82Zm-4.966,8.234h-7.3L8.784,9.527H21.312Z"/>
    <circle id="Ellipse_117" data-name="Ellipse 117" cx="2" cy="2" r="2" transform="translate(9.279 19)"/>
    <circle id="Ellipse_118" data-name="Ellipse 118" cx="2" cy="2" r="2" transform="translate(16.721 19)"/>
  </g>
</svg>
