<svg xmlns="http://www.w3.org/2000/svg" width="30.042" height="9.206" viewBox="0 0 30.042 9.206">
  <path id="bxl-visa_1_" data-name="bxl-visa (1)" d="M23.837,9.312a6.24,6.24,0,0,0-2.179-.377c-2.4,0-4.1,1.211-4.112,2.948-.015,1.277,1.206,2,2.13,2.423.948.439,1.265.715,1.262,1.107-.006.6-.757.867-1.455.867a5.141,5.141,0,0,1-2.29-.469l-.3-.14-.341,2a8.216,8.216,0,0,0,2.724.47c2.555,0,4.225-1.2,4.244-3.052.021-1.02-.64-1.79-2.031-2.427-.846-.413-1.37-.689-1.37-1.108,0-.371.449-.767,1.388-.767a4.43,4.43,0,0,1,1.822.344l.225.1L23.9,9.3l-.059.014ZM30.073,9.1H28.2a1.218,1.218,0,0,0-1.28.74l-3.611,8.179H25.86l.511-1.341,3.118,0c.074.314.3,1.338.3,1.338H32.04L30.073,9.1ZM14.09,9.022h2.435L15,17.946H12.57l1.52-8.927Zm-6.18,4.919.252,1.239L10.541,9.1h2.579L9.288,18H6.715l-2.1-7.542a.509.509,0,0,0-.224-.3A10.435,10.435,0,0,0,2,9.279l.033-.188H5.949a1.013,1.013,0,0,1,1.1.755l.856,4.1v0Zm19.159.91.97-2.5c-.012.027.2-.515.323-.85l.167.77.563,2.574H27.067v0Z" transform="translate(-1.998 -8.935)"/>
</svg>
