<svg xmlns="http://www.w3.org/2000/svg" width="19.98" height="12.347" viewBox="0 0 19.98 12.347">
  <path id="bxl-mastercard_1_" data-name="bxl-mastercard (1)" d="M11.454,17.021c.048.041.1.082.151.122a6.174,6.174,0,1,1,0-10.287,1.318,1.318,0,0,0-.138.126,6.64,6.64,0,0,0-.01,10.039ZM15.815,5.826A6.14,6.14,0,0,0,12.4,6.856a1.412,1.412,0,0,1,.137.126,6.64,6.64,0,0,1,.011,10.039c-.049.041-.1.082-.151.122A6.175,6.175,0,1,0,15.815,5.826ZM12,7.15c-.079.063-.157.126-.233.192a6.173,6.173,0,0,0,0,9.317c.076.066.154.131.233.194.08-.063.157-.128.233-.194a6.17,6.17,0,0,0,0-9.316c-.075-.067-.153-.13-.233-.193Z" transform="translate(-2.01 -5.826)"/>
</svg>
