<svg id="bx-calculator" xmlns="http://www.w3.org/2000/svg" width="17" height="18" viewBox="0 0 17 18">
  <path id="Path_409" data-name="Path 409" d="M18.111,2H4.889A1.848,1.848,0,0,0,3,3.8V18.2A1.848,1.848,0,0,0,4.889,20H18.111A1.848,1.848,0,0,0,20,18.2V3.8A1.848,1.848,0,0,0,18.111,2ZM4.889,18.2V3.8H18.111V18.2Z" transform="translate(-3 -2)" fill="#fff"/>
  <path id="Path_410" data-name="Path 410" d="M7,11.56H9.024v1.853H7Zm0,3.707H9.024v1.853H7Zm4.048-3.707h2.024v1.853H11.048ZM7,6H17.121V9.707H7Zm4.048,9.267h2.024v1.853H11.048ZM15.1,11.56h2.024v5.56H15.1Z" transform="translate(-3.56 -2.56)" fill="#fff"/>
</svg>
