<svg xmlns="http://www.w3.org/2000/svg" width="100%" height="100%" viewBox="0 0 20 17">
  <g id="bx-cart-alt" transform="translate(-2 -4)">
    <path id="Trazado_2995" data-name="Trazado 2995" d="M8.246,11h10l1.429-5H6.428Z" fill="none"/>
    <path id="Trazado_2996" data-name="Trazado 2996" d="M21,4H2V6H4.3l3.282,9.025A3.009,3.009,0,0,0,10.4,17H19V15H10.4a1,1,0,0,1-.94-.658L8.973,13h9.273a2.008,2.008,0,0,0,1.923-1.451l1.793-6.274A1,1,0,0,0,21,4Zm-2.754,7h-10L6.428,6H19.675Z" fill="#262833"/>
    <circle id="Elipse_115" data-name="Elipse 115" cx="1.5" cy="1.5" r="1.5" transform="translate(9 18)" fill="#262833"/>
    <circle id="Elipse_116" data-name="Elipse 116" cx="1.5" cy="1.5" r="1.5" transform="translate(15 18)" fill="#262833"/>
  </g>
</svg>
