<svg xmlns="http://www.w3.org/2000/svg" width="36" height="24.003" viewBox="0 0 36 24.003">
  <g id="Payment_1" data-name="Payment 1" transform="translate(-483 -260.839)">
    <path id="Path_217" data-name="Path 217" d="M32.934,0H3.065A3.109,3.109,0,0,0,0,3.1V20.9A3.109,3.109,0,0,0,3.065,24H32.934A3.109,3.109,0,0,0,36,20.9V3.1A3.038,3.038,0,0,0,32.934,0ZM4.4,4.508H8.86a1.806,1.806,0,0,1,1.783,1.8,1.77,1.77,0,0,1-1.783,1.8H4.4a1.806,1.806,0,0,1-1.783-1.8A1.77,1.77,0,0,1,4.4,4.508ZM33.435,17.072H2.619V12H33.435Z" transform="translate(483 260.839)" fill="#231f20"/>
  </g>
</svg>
