<svg xmlns="http://www.w3.org/2000/svg" width="16.64" height="16" viewBox="0 0 16.64 16">
  <path id="bxs-hide" d="M7.026,10.453l-3.2-3.182a8.689,8.689,0,0,0-1.743,2.762L2,10.293l.087.26a8.675,8.675,0,0,0,8.234,5.509,9.812,9.812,0,0,0,2.112-.225L10.16,13.574A3.293,3.293,0,0,1,7.026,10.453ZM10.32,4.524a8.927,8.927,0,0,0-3.842.822L3.413,2.293,2.242,3.458l14.9,14.835,1.17-1.165L15.58,14.41a8.984,8.984,0,0,0,2.973-3.856l.087-.26-.087-.26A8.674,8.674,0,0,0,10.32,4.524ZM11.9,10.743A1.624,1.624,0,0,0,9.869,8.722L8.621,7.479a3.293,3.293,0,0,1,5.01,2.814,3.237,3.237,0,0,1-.486,1.692Z" transform="translate(-2 -2.293)"/>
</svg>
