<svg id="bx-show" xmlns="http://www.w3.org/2000/svg" width="16.64" height="11.52" viewBox="0 0 16.64 11.52">
  <path id="Path_522" data-name="Path 522" d="M11.544,9a2.544,2.544,0,1,0,2.544,2.544A2.561,2.561,0,0,0,11.544,9Z" transform="translate(-3.224 -5.784)"/>
  <path id="Path_523" data-name="Path 523" d="M10.266,5a8.67,8.67,0,0,0-8.232,5.5l-.088.26.087.26a8.673,8.673,0,0,0,8.233,5.5,8.67,8.67,0,0,0,8.232-5.5l.088-.26L18.5,10.5A8.673,8.673,0,0,0,10.266,5Zm0,9.874A6.906,6.906,0,0,1,3.707,10.76a6.906,6.906,0,0,1,6.559-4.114,6.906,6.906,0,0,1,6.559,4.114A6.906,6.906,0,0,1,10.266,14.874Z" transform="translate(-1.946 -5)"/>
</svg>
