<svg xmlns="http://www.w3.org/2000/svg" width="100%" height="100%" viewBox="0 0 20 21">
  <g id="bx-user" transform="translate(-3 -2)">
    <circle id="Elipse_2" data-name="Elipse 2" cx="3" cy="3" r="3" transform="translate(9 4)" fill="none"/>
    <path id="Trazado_408" data-name="Trazado 408" d="M13,2a5.526,5.526,0,1,0,5.556,5.526A5.547,5.547,0,0,0,13,2Zm0,8.842a3.316,3.316,0,1,1,3.333-3.316A3.329,3.329,0,0,1,13,10.842ZM23,23V21.895a7.767,7.767,0,0,0-7.778-7.737H10.778A7.767,7.767,0,0,0,3,21.895V23H5.222V21.895a5.547,5.547,0,0,1,5.556-5.526h4.444a5.547,5.547,0,0,1,5.556,5.526V23Z" fill="#262833"/>
  </g>
</svg>
